<svg width="1024" height="1024" viewBox="0 0 1024 1024" fill="none" xmlns="http://www.w3.org/2000/svg">
<path d="M938 37C965.062 37 987 58.9381 987 86V938C987 965.062 965.062 987 938 987H86C58.938 987 37 965.062 37 938V86C37 58.938 58.9381 37 86 37H938Z" fill="#80ACEB" stroke="white" stroke-width="50" stroke-linejoin="round"/>
<path d="M309.43 219.484L804.515 219.496L804.425 430.187C804.424 479.725 803.983 530.029 804.577 579.514L579.518 579.369C578.958 653.204 578.754 730.777 579.51 804.548C539.707 803.72 497.224 804.433 457.24 804.434L219.578 804.411L219.382 309.51L309.669 309.57C308.689 281.218 309.499 248.188 309.43 219.484Z" fill="#F6F6F3"/>
<path d="M310.181 309.628L487.898 309.579C517.733 309.573 549.734 310.138 579.404 309.502L579.357 486.456C579.352 516.083 578.574 550.093 579.518 579.369C490.083 579.571 398.96 578.419 309.697 579.499L309.573 400.802L309.586 344.954C309.59 334.473 309.245 319.831 310.181 309.628Z" fill="#80ACEB"/>
</svg>
